<?xml version="1.0" standalone="no"?>
<!DOCTYPE svg PUBLIC "-//W3C//DTD SVG 1.1//EN" "http://www.w3.org/Graphics/SVG/1.1/DTD/svg11.dtd">

<svg width="135" height="50" viewBox="0 0 135 50" preserveAspectRatio="none" 
  xmlns="http://www.w3.org/2000/svg"
  xmlns:xlink="http://www.w3.org/1999/xlink">


<polyline points="0.0, 21.94882315400617 0.7988165680473372, 23.295392809140367 1.5976331360946745, 25.220718378118136 2.396449704142012, 28.8367909856779 3.195266272189349, 33.146599540903885 3.994082840236686, 34.05117039878538 4.792899408284024, 36.72168947092624 5.591715976331361, 37.65836747727664 6.390532544378698, 36.101615045497965 7.189349112426036, 37.69072381886362 7.988165680473372, 37.27813097442621 8.78698224852071, 38.137867665981574 9.585798816568047, 37.04185328286874 10.384615384615385, 38.16212463127602 11.183431952662723, 38.81170427576051 11.982248520710058, 39.68641846857314 12.781065088757396, 40.864363511652805 13.579881656804734, 40.07417970246059 14.378698224852071, 40.40955608827145 15.177514792899409, 38.06927641414937 15.976331360946745, 36.37400191439286 16.775147928994084, 37.55483985230924 17.57396449704142, 37.10785293990565 18.37278106508876, 37.07586561806288 19.171597633136095, 37.33221056788395 19.970414201183434, 34.776463412322855 20.76923076923077, 33.91568996102471 21.56804733727811, 34.62793269177617 22.366863905325445, 36.610942770974134 23.16568047337278, 35.71257415741777 23.964497041420117, 34.082948087701794 24.763313609467456, 34.2841075446906 25.562130177514792, 34.503098543061526 26.36094674556213, 35.393294595944305 27.159763313609467, 34.74439191819126 27.958579881656807, 33.5303654934801 28.757396449704142, 29.09268479409257 29.55621301775148, 28.047862471014934 30.355029585798817, 31.949069171044574 31.153846153846157, 33.092460891241586 31.95266272189349, 33.59554135478221 32.751479289940825, 32.96483651882246 33.55029585798817, 32.40558194247379 34.349112426035504, 32.05691268088085 35.14792899408284, 30.54962491153286 35.94674556213018, 31.833004930311382 36.74556213017752, 32.1433913371132 37.54437869822485, 32.37176112887375 38.34319526627219, 32.43300334275862 39.142011834319526, 33.77189872510262 39.94082840236687, 33.31616199094434 40.7396449704142, 34.97748678260762 41.53846153846154, 36.53725710044892 42.337278106508876, 35.13013152645952 43.13609467455622, 35.174985228649966 43.93491124260355, 34.673089573834304 44.73372781065089, 35.65815627406473 45.532544378698226, 37.557561074021315 46.33136094674556, 37.64784105869328 47.1301775147929, 37.237091334220956 47.928994082840234, 37.67046323188959 48.72781065088758, 38.6684183861663 49.52662721893491, 39.34745559578761 50.32544378698225, 39.59182496625333 51.124260355029584, 36.77415279137448 51.92307692307693, 37.60321242250346 52.72189349112426, 37.16010744627792 53.5207100591716, 36.84297808701979 54.319526627218934, 38.29937407143559 55.11834319526627, 39.126570840449176 55.91715976331361, 37.303942859030734 56.71597633136094, 35.30574249377435 57.514792899408285, 40.47360273852677 58.31360946745562, 39.192258060598974 59.11242603550296, 39.298745986280565 59.91124260355029, 37.696223708009896 60.710059171597635, 37.43931472655312 61.50887573964497, 34.239949343090345 62.307692307692314, 33.496183594859566 63.10650887573964, 33.94672510575386 63.90532544378698, 32.85401240851273 64.70414201183432, 25.311699076000455 65.50295857988165, 31.299228774476607 66.30177514792899, 28.61872131240764 67.10059171597634, 24.57878748939009 67.89940828402366, 26.35073408378446 68.69822485207101, 26.016433862062854 69.49704142011834, 24.89743580642722 70.29585798816568, 23.09562514723294 71.09467455621302, 25.650475451414845 71.89349112426036, 24.739542683466677 72.6923076923077, 24.648159107570233 73.49112426035504, 25.998091413501605 74.28994082840237, 29.41226102819649 75.0887573964497, 32.10537006806333 75.88757396449704, 30.804866477711222 76.68639053254438, 33.21729756624174 77.48520710059172, 33.82805286830841 78.28402366863905, 36.551615915054654 79.0828402366864, 36.549407852448276 79.88165680473374, 35.90048990844321 80.68047337278107, 37.84605362738662 81.4792899408284, 38.08573208286494 82.27810650887574, 37.711260922253345 83.07692307692308, 34.09704307917678 83.87573964497041, 35.359085220396544 84.67455621301775, 36.687990523007294 85.4733727810651, 36.40651290433482 86.27218934911244, 35.79946930665457 87.07100591715975, 36.85010519537709 87.8698224852071, 37.62612973061924 88.66863905325444, 36.63430476691012 89.46745562130178, 36.58095022499283 90.26627218934911, 33.38252123521844 91.06508875739645, 33.786546691629745 91.8639053254438, 33.677001001102255 92.66272189349112, 31.940056260940235 93.46153846153845, 32.355521650565386 94.2603550295858, 30.953481258105857 95.05917159763314, 36.610674019344444 95.85798816568047, 35.55903464132006 96.65680473372781, 35.58311492794253 97.45562130177515, 35.61269161939873 98.2544378698225, 37.92329547089408 99.05325443786982, 40.318872468641146 99.85207100591715, 43.82734515852068 100.6508875739645, 45.374441818259896 101.44970414201183, 44.24064499453287 102.24852071005917, 48.51599634533568 103.04733727810651, 50.0 103.84615384615385, 46.03760003602218 104.64497041420118, 42.53212545444258 105.44378698224853, 42.644371431257 106.24260355029585, 40.34180936707795 107.0414201183432, 40.45722643056155 107.84023668639053, 41.64765977128215 108.63905325443787, 44.034543550764866 109.43786982248521, 44.20739935289793 110.23668639053254, 40.67759345901017 111.03550295857988, 37.462721315901376 111.83431952662723, 39.00721252889127 112.63313609467457, 39.77443084254595 113.43195266272188, 39.13935578715525 114.23076923076923, 37.91158740958291 115.02958579881657, 37.3194842330974 115.82840236686391, 40.746685963539406 116.62721893491124, 41.1612796930276 117.42603550295858, 41.53266124133667 118.22485207100593, 41.081709356409995 119.02366863905324, 37.659176482333024 119.82248520710058, 29.814863142491227 120.62130177514793, 24.288273580195906 121.42011834319527, 30.687978237789647 122.2189349112426, 25.27720322772803 123.01775147928994, 27.120510110500266 123.81656804733728, 26.120875091162926 124.61538461538463, 27.92438670257979 125.41420118343194, 27.275137960379332 126.21301775147928, 26.58839549795587 127.01183431952663, 26.51497377964287 127.81065088757396, 24.995221069544055 128.60946745562129, 21.714950112704905 129.40828402366864, 16.364019836037585 130.20710059171597, 2.897658234706314 131.0059171597633, 1.23948149083077 131.80473372781066, 0.6154456807072541 132.60355029585799, 0.0 133.40236686390534, 6.777779157773326 134.20118343195267, 3.0895539075953073" fill="none" stroke="#32ca5b" stroke-width="1.25"/>

</svg>