<?xml version="1.0" standalone="no"?>
<!DOCTYPE svg PUBLIC "-//W3C//DTD SVG 1.1//EN" "http://www.w3.org/Graphics/SVG/1.1/DTD/svg11.dtd">

<svg width="135" height="50" viewBox="0 0 135 50" preserveAspectRatio="none" 
  xmlns="http://www.w3.org/2000/svg"
  xmlns:xlink="http://www.w3.org/1999/xlink">


<polyline points="0.0, 40.49025378130187 0.7988165680473372, 40.13388915924954 1.5976331360946745, 36.1625244761608 2.396449704142012, 36.67977883569198 3.195266272189349, 37.18930882704321 3.994082840236686, 39.998383546061994 4.792899408284024, 42.50528529197514 5.591715976331361, 35.628037032844745 6.390532544378698, 34.54138234950228 7.189349112426036, 34.22650035937292 7.988165680473372, 39.435936650630346 8.78698224852071, 43.875042427508085 9.585798816568047, 37.42372813022757 10.384615384615385, 38.25344277252148 11.183431952662723, 37.283552764391544 11.982248520710058, 32.66271376521642 12.781065088757396, 33.4563606918293 13.579881656804734, 33.530926944198754 14.378698224852071, 31.200090407462277 15.177514792899409, 36.959542277310746 15.976331360946745, 39.58040006795225 16.775147928994084, 38.05215395859884 17.57396449704142, 37.43197423054734 18.37278106508876, 37.44137109173016 19.171597633136095, 38.136492144669845 19.970414201183434, 37.42482410343028 20.76923076923077, 35.04777681097083 21.56804733727811, 34.532991941432925 22.366863905325445, 35.240039622028 23.16568047337278, 38.47095373029132 23.964497041420117, 35.3350516508803 24.763313609467456, 36.34041760761126 25.562130177514792, 36.136488854295436 26.36094674556213, 35.33777664109328 27.159763313609467, 33.190379859781885 27.958579881656807, 31.14197126682446 28.757396449704142, 28.495353147272063 29.55621301775148, 29.968001109806124 30.355029585798817, 34.404666719055484 31.153846153846157, 32.74471650304798 31.95266272189349, 32.96740329353195 32.751479289940825, 33.010971412580204 33.55029585798817, 33.19408243507368 34.349112426035504, 29.99726593015517 35.14792899408284, 15.862112613431838 35.94674556213018, 16.186268324523773 36.74556213017752, 18.29562819564665 37.54437869822485, 19.000815080589547 38.34319526627219, 12.70055563749203 39.142011834319526, 0.0 39.94082840236687, 1.827657028086559 40.7396449704142, 8.750789539650409 41.53846153846154, 6.6295515965871745 42.337278106508876, 7.663635668773582 43.13609467455622, 9.835333479806309 43.93491124260355, 8.229428724702364 44.73372781065089, 8.705016860641278 45.532544378698226, 12.472431011997699 46.33136094674556, 12.019450691025483 47.1301775147929, 8.877349738446805 47.928994082840234, 8.753094983193826 48.72781065088758, 12.305838744459445 49.52662721893491, 7.854334893662257 50.32544378698225, 2.8682356703094953 51.124260355029584, 3.9124760345576806 51.92307692307693, 5.272064320582911 52.72189349112426, 9.920480946270112 53.5207100591716, 11.632043797188645 54.319526627218934, 22.79707535842842 55.11834319526627, 22.272703544097247 55.91715976331361, 20.79387959941821 56.71597633136094, 21.304968177032503 57.514792899408285, 19.71657197978804 58.31360946745562, 17.398224880816 59.11242603550296, 15.229417633658853 59.91124260355029, 15.308309193568661 60.710059171597635, 16.470042676078002 61.50887573964497, 16.720291730622886 62.307692307692314, 16.58254408242075 63.10650887573964, 18.044298291355844 63.90532544378698, 18.55029794937058 64.70414201183432, 18.429180728646664 65.50295857988165, 16.439289517637313 66.30177514792899, 15.37268146809069 67.10059171597634, 15.57772143928999 67.89940828402366, 15.386924208643787 68.69822485207101, 13.592839336910888 69.49704142011834, 13.735347502161538 70.29585798816568, 14.739598251346667 71.09467455621302, 13.374621382327215 71.89349112426036, 11.57783947059632 72.6923076923077, 7.644376823223081 73.49112426035504, 4.680122440327354 74.28994082840237, 5.075703893877396 75.0887573964497, 2.2882264795541976 75.88757396449704, 5.707545691627819 76.68639053254438, 8.049006579689525 77.48520710059172, 6.5578959470812395 78.28402366863905, 8.439243461224256 79.0828402366864, 8.941678461706607 79.88165680473374, 7.861073656445833 80.68047337278107, 6.026725415713242 81.4792899408284, 11.574527140897027 82.27810650887574, 10.885077195629355 83.07692307692308, 9.440145493682497 83.87573964497041, 10.096451870765511 84.67455621301775, 8.927466177213612 85.4733727810651, 9.548969124742465 86.27218934911244, 12.168732616991651 87.07100591715975, 14.446618075601037 87.8698224852071, 11.34313689134553 88.66863905325444, 15.988615357939464 89.46745562130178, 14.979924331288025 90.26627218934911, 14.323219616085442 91.06508875739645, 9.123224433619583 91.8639053254438, 7.567900730806778 92.66272189349112, 12.470553181244428 93.46153846153845, 12.148249108815554 94.2603550295858, 10.771718341031395 95.05917159763314, 9.485562483396885 95.85798816568047, 12.957861757042362 96.65680473372781, 12.429458120796099 97.45562130177515, 14.409202396256221 98.2544378698225, 15.896657525211689 99.05325443786982, 18.566888708928808 99.85207100591715, 23.405680912421733 100.6508875739645, 22.97800385943175 101.44970414201183, 24.925670916521053 102.24852071005917, 50.0 103.04733727810651, 45.2151772914382 103.84615384615385, 39.65863621194429 104.64497041420118, 39.52820077145803 105.44378698224853, 35.35084694979898 106.24260355029585, 36.6898263598687 107.0414201183432, 37.951356512040974 107.84023668639053, 42.114732442537694 108.63905325443787, 39.16881080701442 109.43786982248521, 33.38326357959065 110.23668639053254, 27.744953674920225 111.03550295857988, 25.81009455069985 111.83431952662723, 24.659153762709458 112.63313609467457, 25.95941840666732 113.43195266272188, 30.10280404885823 114.23076923076923, 27.37080161075648 115.02958579881657, 27.733417914024532 115.82840236686391, 31.71184579448178 116.62721893491124, 30.72067780712985 117.42603550295858, 33.290369734872286 118.22485207100593, 32.85362213761908 119.02366863905324, 30.768199116220323 119.82248520710058, 29.14777082908887 120.62130177514793, 30.45887815968814 121.42011834319527, 30.108725448965856 122.2189349112426, 29.66208457700637 123.01775147928994, 26.695271913411645 123.81656804733728, 27.663473626797447 124.61538461538463, 24.631761170219516 125.41420118343194, 20.410661165919436 126.21301775147928, 20.203275501313133 127.01183431952663, 20.013877526474083 127.81065088757396, 21.82560335843121 128.60946745562129, 21.767586705133628 129.40828402366864, 25.30869857681394 130.20710059171597, 24.91599123437282 131.0059171597633, 22.605299248062067 131.80473372781066, 23.219042208834406 132.60355029585799, 23.39934467883457 133.40236686390534, 23.351462595720495 134.20118343195267, 23.981432571155928" fill="none" stroke="#32ca5b" stroke-width="1.25"/>

</svg>