<?xml version="1.0" standalone="no"?>
<!DOCTYPE svg PUBLIC "-//W3C//DTD SVG 1.1//EN" "http://www.w3.org/Graphics/SVG/1.1/DTD/svg11.dtd">

<svg width="135" height="50" viewBox="0 0 135 50" preserveAspectRatio="none" 
  xmlns="http://www.w3.org/2000/svg"
  xmlns:xlink="http://www.w3.org/1999/xlink">


<polyline points="0.0, 36.50231573480727 0.7988165680473372, 32.275823026781694 1.5976331360946745, 31.875943136583796 2.396449704142012, 28.701517644975038 3.195266272189349, 21.593992126681684 3.994082840236686, 27.375955955831877 4.792899408284024, 26.651605522832046 5.591715976331361, 26.73645526653155 6.390532544378698, 28.885572783350977 7.189349112426036, 28.446268377809226 7.988165680473372, 29.387658866495038 8.78698224852071, 32.02822477976574 9.585798816568047, 32.1440880364286 10.384615384615385, 31.73622670771121 11.183431952662723, 29.30553178787137 11.982248520710058, 25.545036247609442 12.781065088757396, 27.23250310508775 13.579881656804734, 22.29692180238497 14.378698224852071, 23.47733238540942 15.177514792899409, 19.276966194458293 15.976331360946745, 19.573352978166074 16.775147928994084, 24.31271082605635 17.57396449704142, 23.599391139469937 18.37278106508876, 23.255428410953733 19.171597633136095, 22.84850930859933 19.970414201183434, 23.39322446650007 20.76923076923077, 24.92630375228533 21.56804733727811, 25.920522472328233 22.366863905325445, 26.75673524048768 23.16568047337278, 25.51415878654938 23.964497041420117, 22.202799949916677 24.763313609467456, 24.2700568597981 25.562130177514792, 25.905330479135845 26.36094674556213, 26.786477226793064 27.159763313609467, 26.69686461229292 27.958579881656807, 26.117591883482934 28.757396449704142, 24.627914470141548 29.55621301775148, 26.30252388798975 30.355029585798817, 28.18882097743554 31.153846153846157, 29.60869217189053 31.95266272189349, 27.364927364244572 32.751479289940825, 26.31909791250045 33.55029585798817, 26.238389462572044 34.349112426035504, 25.998506907162238 35.14792899408284, 25.425544493589204 35.94674556213018, 26.739361962918185 36.74556213017752, 28.25368987600546 37.54437869822485, 28.48840501308863 38.34319526627219, 30.144442679898216 39.142011834319526, 26.931460676467495 39.94082840236687, 27.764127339196392 40.7396449704142, 28.67210896471025 41.53846153846154, 29.85408084982211 42.337278106508876, 29.558420854601398 43.13609467455622, 29.21797598942975 43.93491124260355, 29.477155427575774 44.73372781065089, 29.694456427369577 45.532544378698226, 30.17836408222961 46.33136094674556, 29.635318019379252 47.1301775147929, 27.982636979905827 47.928994082840234, 29.959291292150297 48.72781065088758, 28.386369409770545 49.52662721893491, 29.957272010614883 50.32544378698225, 30.200682381925503 51.124260355029584, 30.319248877575237 51.92307692307693, 29.675193697943303 52.72189349112426, 29.65915847308887 53.5207100591716, 29.26581819144901 54.319526627218934, 31.096670635517405 55.11834319526627, 32.7324490799595 55.91715976331361, 34.072684840652805 56.71597633136094, 34.3111696566195 57.514792899408285, 34.221807615509675 58.31360946745562, 34.771861065160785 59.11242603550296, 37.053783790099764 59.91124260355029, 36.90594524048667 60.710059171597635, 35.58489489358338 61.50887573964497, 29.557785114552974 62.307692307692314, 32.70487477564711 63.10650887573964, 32.89915565201176 63.90532544378698, 33.51182381730163 64.70414201183432, 34.45453974358983 65.50295857988165, 33.62703250378836 66.30177514792899, 36.26261598339188 67.10059171597634, 35.925725590637626 67.89940828402366, 37.207454493042505 68.69822485207101, 36.394185226492795 69.49704142011834, 37.11150459732754 70.29585798816568, 37.03874510805172 71.09467455621302, 37.20429761299512 71.89349112426036, 35.792561258585906 72.6923076923077, 37.42370432479932 73.49112426035504, 36.15218778444243 74.28994082840237, 37.83013008021732 75.0887573964497, 39.36993373749489 75.88757396449704, 40.25070819641043 76.68639053254438, 39.73402652542284 77.48520710059172, 39.811734129114015 78.28402366863905, 38.57503007480549 79.0828402366864, 39.51750129028479 79.88165680473374, 39.905967483016944 80.68047337278107, 41.28114319354578 81.4792899408284, 39.95227101449539 82.27810650887574, 40.904154085056135 83.07692307692308, 41.49647951220616 83.87573964497041, 38.79556786376523 84.67455621301775, 39.42559849602261 85.4733727810651, 39.52437942431349 86.27218934911244, 41.406982590291186 87.07100591715975, 41.12124142131249 87.8698224852071, 41.76936142382634 88.66863905325444, 42.88201259227807 89.46745562130178, 43.69591811838334 90.26627218934911, 44.14231894899989 91.06508875739645, 48.771593882052386 91.8639053254438, 44.05677854651087 92.66272189349112, 47.52882467034045 93.46153846153845, 45.48667563750377 94.2603550295858, 45.47087962186872 95.05917159763314, 43.325717628971205 95.85798816568047, 47.210127340926334 96.65680473372781, 46.319553629607135 97.45562130177515, 45.944234594621555 98.2544378698225, 32.61779161100168 99.05325443786982, 41.646164379718606 99.85207100591715, 43.238080369379205 100.6508875739645, 43.40123453512776 101.44970414201183, 38.84902038964927 102.24852071005917, 50.0 103.04733727810651, 49.26286567782055 103.84615384615385, 46.215250819792544 104.64497041420118, 43.990123854152905 105.44378698224853, 41.58837106479986 106.24260355029585, 40.947013485658964 107.0414201183432, 40.64745310885276 107.84023668639053, 39.59785494290888 108.63905325443787, 40.99078131358658 109.43786982248521, 40.48409820134406 110.23668639053254, 35.772605494641866 111.03550295857988, 35.606462835516616 111.83431952662723, 39.53716494591845 112.63313609467457, 36.39221566707043 113.43195266272188, 37.9581086064955 114.23076923076923, 37.71569786465734 115.02958579881657, 42.10768252007288 115.82840236686391, 42.42451656519893 116.62721893491124, 36.86198147532204 117.42603550295858, 39.2956868595391 118.22485207100593, 38.64715358344372 119.02366863905324, 37.79784466807078 119.82248520710058, 28.73423082956285 120.62130177514793, 27.024072315326254 121.42011834319527, 30.92044233301771 122.2189349112426, 32.98761048988098 123.01775147928994, 31.848708943779496 123.81656804733728, 29.10736943400224 124.61538461538463, 24.27492055794585 125.41420118343194, 19.243263128694437 126.21301775147928, 16.059207411580392 127.01183431952663, 15.565916450803405 127.81065088757396, 18.562628519892925 128.60946745562129, 20.3912959595103 129.40828402366864, 12.276871329632744 130.20710059171597, 9.700363483275057 131.0059171597633, 10.952002966017302 131.80473372781066, 4.34970411417759 132.60355029585799, 0.0 133.40236686390534, 1.3996046084512774 134.20118343195267, 4.224206710594917" fill="none" stroke="#32ca5b" stroke-width="1.25"/>

</svg>