<?xml version="1.0" standalone="no"?>
<!DOCTYPE svg PUBLIC "-//W3C//DTD SVG 1.1//EN" "http://www.w3.org/Graphics/SVG/1.1/DTD/svg11.dtd">

<svg width="135" height="50" viewBox="0 0 135 50" preserveAspectRatio="none" 
  xmlns="http://www.w3.org/2000/svg"
  xmlns:xlink="http://www.w3.org/1999/xlink">


<polyline points="0.0, 35.51413754841077 0.7988165680473372, 38.48441750189938 1.5976331360946745, 43.326712115378434 2.396449704142012, 41.815920476732046 3.195266272189349, 41.624018694410914 3.994082840236686, 43.02403112338023 4.792899408284024, 45.685882483135956 5.591715976331361, 43.75350483370479 6.390532544378698, 42.4709613497717 7.189349112426036, 44.33044143027081 7.988165680473372, 45.107965685758536 8.78698224852071, 45.11165246099386 9.585798816568047, 47.28884125446559 10.384615384615385, 50.0 11.183431952662723, 47.18834194503537 11.982248520710058, 47.16590667530357 12.781065088757396, 47.83100797487076 13.579881656804734, 46.851905753494655 14.378698224852071, 43.268813008495854 15.177514792899409, 43.719486916801145 15.976331360946745, 40.1516789780203 16.775147928994084, 37.654239260905676 17.57396449704142, 35.55894294705869 18.37278106508876, 35.70056274323309 19.171597633136095, 36.685190033339985 19.970414201183434, 37.951045640155016 20.76923076923077, 36.528163381452636 21.56804733727811, 42.39806746915612 22.366863905325445, 41.923276200112795 23.16568047337278, 40.578137845542386 23.964497041420117, 41.677224259801676 24.763313609467456, 42.45568291644631 25.562130177514792, 42.600557354843524 26.36094674556213, 44.61744260193552 27.159763313609467, 43.512142107602195 27.958579881656807, 41.28272109655534 28.757396449704142, 40.509295498766015 29.55621301775148, 38.71793802756256 30.355029585798817, 39.330120731795674 31.153846153846157, 39.65701414841708 31.95266272189349, 39.93346626598066 32.751479289940825, 39.05863428928336 33.55029585798817, 40.17069340738939 34.349112426035504, 40.868387790416996 35.14792899408284, 39.20195551663995 35.94674556213018, 37.11084713725643 36.74556213017752, 36.335926647455736 37.54437869822485, 37.02893657880111 38.34319526627219, 34.67895838636963 39.142011834319526, 35.960318325742634 39.94082840236687, 35.9050007250261 40.7396449704142, 36.8406160611427 41.53846153846154, 35.73814631328499 42.337278106508876, 31.762537517995277 43.13609467455622, 30.03603688593659 43.93491124260355, 31.800042737851935 44.73372781065089, 29.70821282631617 45.532544378698226, 30.94278110615151 46.33136094674556, 30.560903361148412 47.1301775147929, 30.890614806583788 47.928994082840234, 33.01925475366249 48.72781065088758, 28.270911455340052 49.52662721893491, 24.484186311398624 50.32544378698225, 25.31217037040281 51.124260355029584, 21.95263424058994 51.92307692307693, 23.055694690373667 52.72189349112426, 22.046570159627656 53.5207100591716, 25.9351664584004 54.319526627218934, 28.415358356806365 55.11834319526627, 24.213799827393895 55.91715976331361, 23.92278015228504 56.71597633136094, 21.78125516256075 57.514792899408285, 20.832901314044086 58.31360946745562, 20.3845815131892 59.11242603550296, 19.023587886988413 59.91124260355029, 20.563626411587727 60.710059171597635, 20.372215491565086 61.50887573964497, 15.599338233395768 62.307692307692314, 18.130241394367907 63.10650887573964, 19.964535103645602 63.90532544378698, 17.69103174792243 64.70414201183432, 15.20613607379847 65.50295857988165, 16.657640648492254 66.30177514792899, 17.43674542904493 67.10059171597634, 15.703182426002085 67.89940828402366, 14.924989692191165 68.69822485207101, 16.760185262120967 69.49704142011834, 11.67295420129299 70.29585798816568, 6.421203923459551 71.09467455621302, 7.581617764872991 71.89349112426036, 9.026761820297905 72.6923076923077, 8.428673841541679 73.49112426035504, 4.067243029786211 74.28994082840237, 0.0 75.0887573964497, 7.99526376580604 75.88757396449704, 4.752804347861659 76.68639053254438, 3.0148854581342395 77.48520710059172, 4.569684868473494 78.28402366863905, 6.153715220042062 79.0828402366864, 3.880538858866594 79.88165680473374, 1.160489053759676 80.68047337278107, 4.863411102421356 81.4792899408284, 7.6876792981629265 82.27810650887574, 8.681364031413398 83.07692307692308, 12.692755804946607 83.87573964497041, 15.184240606042831 84.67455621301775, 16.80152973065048 85.4733727810651, 12.421795904832281 86.27218934911244, 7.215615636854075 87.07100591715975, 12.151372523561509 87.8698224852071, 17.24936036510045 88.66863905325444, 20.09333117461429 89.46745562130178, 16.09808233357549 90.26627218934911, 19.55589691946543 91.06508875739645, 15.052109161407323 91.8639053254438, 16.88549239288349 92.66272189349112, 16.79355690362127 93.46153846153845, 19.26920448265787 94.2603550295858, 21.941348776374603 95.05917159763314, 20.38988717753217 95.85798816568047, 18.23228641779222 96.65680473372781, 20.111271824092427 97.45562130177515, 23.528904078076245 98.2544378698225, 21.262015535718355 99.05325443786982, 26.684064961028405 99.85207100591715, 23.513063820337763 100.6508875739645, 22.533138302733708 101.44970414201183, 31.615810966273706 102.24852071005917, 28.430497746567923 103.04733727810651, 17.660479949528987 103.84615384615385, 20.8425200563155 104.64497041420118, 20.230719761864602 105.44378698224853, 19.350938309593296 106.24260355029585, 19.10950841624387 107.0414201183432, 15.740320420176776 107.84023668639053, 11.060289899333503 108.63905325443787, 15.49727978846242 109.43786982248521, 15.665342802409462 110.23668639053254, 18.445099711185676 111.03550295857988, 22.856738347877116 111.83431952662723, 21.93391739212018 112.63313609467457, 23.5451608481251 113.43195266272188, 25.527342220347553 114.23076923076923, 27.005105505956557 115.02958579881657, 24.698715625866637 115.82840236686391, 28.873449453368526 116.62721893491124, 27.356043239049306 117.42603550295858, 27.922683772409396 118.22485207100593, 25.642831215746764 119.02366863905324, 25.602439629766454 119.82248520710058, 27.289296917424167 120.62130177514793, 30.166390244809822 121.42011834319527, 30.291038420884075 122.2189349112426, 36.02550782019341 123.01775147928994, 34.52568869584224 123.81656804733728, 36.23792985745046 124.61538461538463, 37.29995409501788 125.41420118343194, 35.58575202647692 126.21301775147928, 29.210934672156913 127.01183431952663, 31.26805175480004 127.81065088757396, 31.285355728089613 128.60946745562129, 33.061917389324435 129.40828402366864, 35.33113310927895 130.20710059171597, 38.0791661583194 131.0059171597633, 38.19079048902401 131.80473372781066, 38.803771172839504 132.60355029585799, 37.924306983002054 133.40236686390534, 40.014236303062404 134.20118343195267, 39.72677494563252" fill="none" stroke="#ff3a33" stroke-width="1.25"/>

</svg>