<?xml version="1.0" standalone="no"?>
<!DOCTYPE svg PUBLIC "-//W3C//DTD SVG 1.1//EN" "http://www.w3.org/Graphics/SVG/1.1/DTD/svg11.dtd">

<svg width="135" height="50" viewBox="0 0 135 50" preserveAspectRatio="none" 
  xmlns="http://www.w3.org/2000/svg"
  xmlns:xlink="http://www.w3.org/1999/xlink">


<polyline points="0.0, 33.20785185496039 0.7988165680473372, 32.51458678780984 1.5976331360946745, 33.2070920357104 2.396449704142012, 35.798130244435114 3.195266272189349, 38.23884057361725 3.994082840236686, 38.87539191812384 4.792899408284024, 36.78751589262822 5.591715976331361, 38.48831683284492 6.390532544378698, 37.64511589018482 7.189349112426036, 39.786805652210546 7.988165680473372, 38.03196100553819 8.78698224852071, 40.167178817204935 9.585798816568047, 39.74377019173255 10.384615384615385, 39.15148213600472 11.183431952662723, 39.34088897295858 11.982248520710058, 38.75644948315789 12.781065088757396, 38.202690001131586 13.579881656804734, 37.6441914016078 14.378698224852071, 35.2725885347174 15.177514792899409, 36.58554257548414 15.976331360946745, 36.82131341275003 16.775147928994084, 36.77418380861301 17.57396449704142, 37.01699161420477 18.37278106508876, 35.74329422382788 19.171597633136095, 37.68177319892029 19.970414201183434, 37.018465412524 20.76923076923077, 36.86806999955103 21.56804733727811, 35.24625143475226 22.366863905325445, 29.971008629376684 23.16568047337278, 28.66327707160275 23.964497041420117, 26.127253260517396 24.763313609467456, 30.250602772077308 25.562130177514792, 23.56871616889072 26.36094674556213, 28.025751430150603 27.159763313609467, 33.16964484182944 27.958579881656807, 29.842978818525562 28.757396449704142, 27.322887091687726 29.55621301775148, 24.10931198202887 30.355029585798817, 22.81908671231279 31.153846153846157, 22.60503479751334 31.95266272189349, 25.20057586360418 32.751479289940825, 25.049623461802085 33.55029585798817, 25.94723266292104 34.349112426035504, 24.789005777461647 35.14792899408284, 23.501168692182343 35.94674556213018, 25.024541945452718 36.74556213017752, 25.999138157236278 37.54437869822485, 26.30319761950576 38.34319526627219, 27.718896421799872 39.142011834319526, 28.40312270801703 39.94082840236687, 22.288308553447646 40.7396449704142, 24.22513788818071 41.53846153846154, 22.193775995011453 42.337278106508876, 24.13201322573715 43.13609467455622, 24.218535516713658 43.93491124260355, 21.31845511636413 44.73372781065089, 20.924966962996187 45.532544378698226, 17.255844374454206 46.33136094674556, 16.684288724847356 47.1301775147929, 18.65689830440825 47.928994082840234, 17.274098851300828 48.72781065088758, 14.854412761489302 49.52662721893491, 15.288114705745823 50.32544378698225, 14.065545402697735 51.124260355029584, 14.003154507130894 51.92307692307693, 14.66177985786971 52.72189349112426, 18.802687880624397 53.5207100591716, 21.14740256849287 54.319526627218934, 21.932756172445178 55.11834319526627, 21.220606236103002 55.91715976331361, 19.18035925003717 56.71597633136094, 21.126788619024918 57.514792899408285, 19.323886871748204 58.31360946745562, 22.453466133439345 59.11242603550296, 24.297697239093647 59.91124260355029, 21.07651974222473 60.710059171597635, 17.976445336950146 61.50887573964497, 19.4712341004729 62.307692307692314, 16.162589618253488 63.10650887573964, 19.13040849323087 63.90532544378698, 15.590165445493978 64.70414201183432, 19.60042579230885 65.50295857988165, 18.36780363209411 66.30177514792899, 19.509132587286253 67.10059171597634, 19.922780744416414 67.89940828402366, 18.368225420181492 68.69822485207101, 19.391510662224295 69.49704142011834, 17.59297568378122 70.29585798816568, 18.3605677418082 71.09467455621302, 20.547306691239797 71.89349112426036, 19.92594887369014 72.6923076923077, 21.479501810725544 73.49112426035504, 24.935695461626924 74.28994082840237, 25.938687764398843 75.0887573964497, 24.013511374781437 75.88757396449704, 28.326180427362313 76.68639053254438, 27.74956117692048 77.48520710059172, 25.3854701522548 78.28402366863905, 24.087665886621775 79.0828402366864, 17.956197609139952 79.88165680473374, 18.00178114976748 80.68047337278107, 27.299346253718326 81.4792899408284, 19.02822702888343 82.27810650887574, 24.736696841931945 83.07692307692308, 21.268703903264345 83.87573964497041, 26.064103366994058 84.67455621301775, 27.13068992094548 85.4733727810651, 24.27644199670002 86.27218934911244, 22.466568903083243 87.07100591715975, 22.709006977950832 87.8698224852071, 27.210692827229426 88.66863905325444, 23.678288842248893 89.46745562130178, 24.345959027745774 90.26627218934911, 25.707081710969863 91.06508875739645, 23.831985679949796 91.8639053254438, 22.029059598348983 92.66272189349112, 25.151869707335724 93.46153846153845, 24.436458031550153 94.2603550295858, 25.496030118486225 95.05917159763314, 26.493711485392147 95.85798816568047, 25.080726081936746 96.65680473372781, 24.85679025593159 97.45562130177515, 19.800997649984822 98.2544378698225, 17.444649999359065 99.05325443786982, 19.049488706230715 99.85207100591715, 24.36455822960645 100.6508875739645, 24.94802342379595 101.44970414201183, 20.712834053599067 102.24852071005917, 21.764123639866185 103.04733727810651, 20.18714105051899 103.84615384615385, 16.71001482385266 104.64497041420118, 15.02803590034823 105.44378698224853, 9.419476740113076 106.24260355029585, 10.630204012844853 107.0414201183432, 15.011075977303237 107.84023668639053, 14.833080925025556 108.63905325443787, 9.758097120221825 109.43786982248521, 0.0 110.23668639053254, 1.761064605712993 111.03550295857988, 8.151620351275373 111.83431952662723, 6.845027999488443 112.63313609467457, 7.4743416169225405 113.43195266272188, 1.2179615318520516 114.23076923076923, 6.434213294963671 115.02958579881657, 2.10163008546207 115.82840236686391, 3.3614827825500195 116.62721893491124, 3.61020660559686 117.42603550295858, 10.017837426187782 118.22485207100593, 11.023424389595176 119.02366863905324, 7.406779862660646 119.82248520710058, 0.9079989222379484 120.62130177514793, 5.676011398388985 121.42011834319527, 9.715155016840217 122.2189349112426, 22.331094822760885 123.01775147928994, 50.0 123.81656804733728, 26.270438492341146 124.61538461538463, 21.877988248585893 125.41420118343194, 25.428718175623082 126.21301775147928, 22.2001140518723 127.01183431952663, 22.625287392407483 127.81065088757396, 19.23053734279954 128.60946745562129, 26.464115602552514 129.40828402366864, 20.461560580292744 130.20710059171597, 26.014209980084267 131.0059171597633, 27.617788889796767 131.80473372781066, 27.024667711119864 132.60355029585799, 32.35528507496429 133.40236686390534, 29.660593368489526 134.20118343195267, 22.94898309613449" fill="none" stroke="#32ca5b" stroke-width="1.25"/>

</svg>