<?xml version="1.0" standalone="no"?>
<!DOCTYPE svg PUBLIC "-//W3C//DTD SVG 1.1//EN" "http://www.w3.org/Graphics/SVG/1.1/DTD/svg11.dtd">

<svg width="135" height="50" viewBox="0 0 135 50" preserveAspectRatio="none" 
  xmlns="http://www.w3.org/2000/svg"
  xmlns:xlink="http://www.w3.org/1999/xlink">


<polyline points="0.0, 0.15336433732461704 0.7988165680473372, 2.0024298255491093 1.5976331360946745, 2.961997186524489 2.396449704142012, 2.648338915419913 3.195266272189349, 4.411452368101941 3.994082840236686, 9.540825632203477 4.792899408284024, 13.059227619191798 5.591715976331361, 14.837352046139141 6.390532544378698, 14.320986474355385 7.189349112426036, 12.966372924280895 7.988165680473372, 17.33302581241286 8.78698224852071, 20.923774417789193 9.585798816568047, 18.853271616160804 10.384615384615385, 18.078816197059005 11.183431952662723, 18.164174556147053 11.982248520710058, 17.97466536424006 12.781065088757396, 19.162990663719455 13.579881656804734, 18.11406384938843 14.378698224852071, 17.520743212105742 15.177514792899409, 16.70071848288407 15.976331360946745, 18.144176103668656 16.775147928994084, 18.52905424814667 17.57396449704142, 15.590529804129275 18.37278106508876, 17.402457532199904 19.171597633136095, 18.354792868727834 19.970414201183434, 10.714413888566781 20.76923076923077, 14.250122528719864 21.56804733727811, 12.755090499874585 22.366863905325445, 15.022884398731307 23.16568047337278, 14.349372669541316 23.964497041420117, 14.739309021817496 24.763313609467456, 8.306432230905264 25.562130177514792, 2.5648206802638573 26.36094674556213, 1.275801585938014 27.159763313609467, 3.544968153049783 27.958579881656807, 3.9532694710934115 28.757396449704142, 3.5168580994517797 29.55621301775148, 2.9979401935656633 30.355029585798817, 5.438060662658361 31.153846153846157, 6.181072738608384 31.95266272189349, 0.0 32.751479289940825, 6.427338456444431 33.55029585798817, 6.384093988913691 34.349112426035504, 8.734863973992365 35.14792899408284, 9.55950095842429 35.94674556213018, 7.10744636822075 36.74556213017752, 5.451914856513711 37.54437869822485, 5.630398671109182 38.34319526627219, 7.168053094072165 39.142011834319526, 8.20493880241096 39.94082840236687, 7.019552206889859 40.7396449704142, 8.355378035473672 41.53846153846154, 9.736244188478741 42.337278106508876, 10.524636965014343 43.13609467455622, 12.38611512375921 43.93491124260355, 12.074979859792071 44.73372781065089, 13.576062108408726 45.532544378698226, 14.054361164053661 46.33136094674556, 13.911949622150862 47.1301775147929, 13.645022487605573 47.928994082840234, 12.698534098896918 48.72781065088758, 11.402207001303841 49.52662721893491, 12.223171386331611 50.32544378698225, 14.488821076148733 51.124260355029584, 14.362394083976563 51.92307692307693, 13.10401206883064 52.72189349112426, 13.62324318472763 53.5207100591716, 10.958764503196406 54.319526627218934, 16.3761425868701 55.11834319526627, 16.549247886491678 55.91715976331361, 14.372228805170364 56.71597633136094, 14.947182477900622 57.514792899408285, 16.055445482351896 58.31360946745562, 16.260749822898024 59.11242603550296, 16.282604598843122 59.91124260355029, 18.958397976795773 60.710059171597635, 18.584016511106924 61.50887573964497, 21.660502170056343 62.307692307692314, 20.2403350203714 63.10650887573964, 23.444543535000022 63.90532544378698, 23.19467629896954 64.70414201183432, 23.45483474280691 65.50295857988165, 20.389390004185433 66.30177514792899, 17.292757422438008 67.10059171597634, 17.72980458514375 67.89940828402366, 21.51562919381698 68.69822485207101, 22.522159925254503 69.49704142011834, 22.543663027256507 70.29585798816568, 24.256909256986848 71.09467455621302, 23.200101666239746 71.89349112426036, 22.4723253235698 72.6923076923077, 22.470787811791325 73.49112426035504, 27.93156222829075 74.28994082840237, 29.385645696510572 75.0887573964497, 33.44351043868411 75.88757396449704, 35.53042273854388 76.68639053254438, 35.827049892051555 77.48520710059172, 31.87986290428549 78.28402366863905, 28.826188446350283 79.0828402366864, 26.433779115167223 79.88165680473374, 30.77513933631989 80.68047337278107, 29.92096309491958 81.4792899408284, 34.536549275751334 82.27810650887574, 34.5758839537463 83.07692307692308, 36.02044714246163 83.87573964497041, 35.0501612474696 84.67455621301775, 34.797607314434494 85.4733727810651, 33.27701902411115 86.27218934911244, 31.884384265292105 87.07100591715975, 36.75113190466721 87.8698224852071, 35.89607187839044 88.66863905325444, 37.12595861243963 89.46745562130178, 37.70000827796298 90.26627218934911, 37.87164682832096 91.06508875739645, 38.22414243337944 91.8639053254438, 37.94777605754737 92.66272189349112, 35.47460899871235 93.46153846153845, 36.715849874719524 94.2603550295858, 35.6058375853391 95.05917159763314, 32.69707811033956 95.85798816568047, 27.03753670458131 96.65680473372781, 27.268244823463206 97.45562130177515, 27.577129576638832 98.2544378698225, 26.918731397565427 99.05325443786982, 24.290217282220553 99.85207100591715, 31.775419741841475 100.6508875739645, 37.253496142655145 101.44970414201183, 37.43645760706728 102.24852071005917, 42.3102512850073 103.04733727810651, 46.78474718226419 103.84615384615385, 45.95230209629534 104.64497041420118, 43.43003058767202 105.44378698224853, 46.13963079258953 106.24260355029585, 43.696694658219606 107.0414201183432, 45.7840045251267 107.84023668639053, 47.28881904557351 108.63905325443787, 48.138339000270804 109.43786982248521, 48.252102264917035 110.23668639053254, 47.4687154930402 111.03550295857988, 50.0 111.83431952662723, 47.77707354896802 112.63313609467457, 44.34107897154674 113.43195266272188, 44.025475284255144 114.23076923076923, 42.77743764440377 115.02958579881657, 39.812344827922054 115.82840236686391, 43.41293311828762 116.62721893491124, 40.61627983628336 117.42603550295858, 40.82285374369 118.22485207100593, 39.75316104277996 119.02366863905324, 39.613511722830665 119.82248520710058, 38.922319185037615 120.62130177514793, 39.4728360757211 121.42011834319527, 25.975831577293413 122.2189349112426, 20.354507509860117 123.01775147928994, 22.5141903244716 123.81656804733728, 24.04753778751253 124.61538461538463, 21.82946860980457 125.41420118343194, 18.610861598585526 126.21301775147928, 15.681394201595882 127.01183431952663, 14.861861162321139 127.81065088757396, 12.625049696028201 128.60946745562129, 12.580839397286192 129.40828402366864, 10.310672023742825 130.20710059171597, 13.736617730739276 131.0059171597633, 16.550298059554702 131.80473372781066, 19.42820763508788 132.60355029585799, 17.518675541939924 133.40236686390534, 17.245380465549186 134.20118343195267, 19.722217561850137" fill="none" stroke="#ff3a33" stroke-width="1.25"/>

</svg>