<?xml version="1.0" standalone="no"?>
<!DOCTYPE svg PUBLIC "-//W3C//DTD SVG 1.1//EN" "http://www.w3.org/Graphics/SVG/1.1/DTD/svg11.dtd">

<svg width="135" height="50" viewBox="0 0 135 50" preserveAspectRatio="none" 
  xmlns="http://www.w3.org/2000/svg"
  xmlns:xlink="http://www.w3.org/1999/xlink">


<polyline points="0.0, 46.87297095956349 0.7988165680473372, 43.37922721152966 1.5976331360946745, 44.11124132476574 2.396449704142012, 45.04133447230221 3.195266272189349, 45.93465884165054 3.994082840236686, 47.2296521416972 4.792899408284024, 47.282441751652755 5.591715976331361, 46.770746043676205 6.390532544378698, 46.51591884210792 7.189349112426036, 46.4569013353979 7.988165680473372, 47.70139208249599 8.78698224852071, 48.59423693657469 9.585798816568047, 47.1092935090169 10.384615384615385, 47.16964211699252 11.183431952662723, 48.41692723042591 11.982248520710058, 50.0 12.781065088757396, 49.95093396314637 13.579881656804734, 46.26392778370747 14.378698224852071, 44.15899572347862 15.177514792899409, 40.674366664854055 15.976331360946745, 42.30574372040056 16.775147928994084, 45.29867102545234 17.57396449704142, 41.938270893564535 18.37278106508876, 43.01539757497493 19.171597633136095, 43.449743489663625 19.970414201183434, 43.47294642803808 20.76923076923077, 43.632300272700135 21.56804733727811, 42.82475011257883 22.366863905325445, 41.84896379703108 23.16568047337278, 38.54948994085377 23.964497041420117, 35.24635070754405 24.763313609467456, 38.31268794097539 25.562130177514792, 38.1866441257113 26.36094674556213, 36.88596244386755 27.159763313609467, 40.39995216973756 27.958579881656807, 38.853794634831004 28.757396449704142, 37.697055323824245 29.55621301775148, 37.6879574100813 30.355029585798817, 37.34867556851895 31.153846153846157, 39.7792475659727 31.95266272189349, 39.52889717061786 32.751479289940825, 40.44035141119526 33.55029585798817, 40.57446287140518 34.349112426035504, 42.95361348154608 35.14792899408284, 41.33835918925231 35.94674556213018, 41.50910918421749 36.74556213017752, 41.2959760719907 37.54437869822485, 39.52255958910366 38.34319526627219, 37.70734015643817 39.142011834319526, 38.24296090468039 39.94082840236687, 39.0694506770021 40.7396449704142, 37.72512770089522 41.53846153846154, 36.705101112455026 42.337278106508876, 35.45348089300463 43.13609467455622, 34.46156556685623 43.93491124260355, 34.55914738104288 44.73372781065089, 37.069562018900214 45.532544378698226, 38.09419711326017 46.33136094674556, 38.4955961765799 47.1301775147929, 37.05203885829925 47.928994082840234, 38.01855212917027 48.72781065088758, 40.51784049830817 49.52662721893491, 40.15232650835051 50.32544378698225, 39.73951366757309 51.124260355029584, 36.45871427341545 51.92307692307693, 32.66037001576995 52.72189349112426, 35.241966582519424 53.5207100591716, 36.27279159216813 54.319526627218934, 36.85457815823488 55.11834319526627, 36.27671104330783 55.91715976331361, 36.53356865378721 56.71597633136094, 36.50734422977142 57.514792899408285, 38.120165735072185 58.31360946745562, 38.597921706769746 59.11242603550296, 40.34833633663296 59.91124260355029, 39.931361649311214 60.710059171597635, 40.03780150423204 61.50887573964497, 40.145312522654024 62.307692307692314, 38.26830258548923 63.10650887573964, 39.02353459677797 63.90532544378698, 39.6524324560288 64.70414201183432, 40.24024540460448 65.50295857988165, 34.99115625346124 66.30177514792899, 35.49516055907037 67.10059171597634, 35.67244424442462 67.89940828402366, 35.17506182815331 68.69822485207101, 34.29179422182912 69.49704142011834, 35.95603897431068 70.29585798816568, 36.92725346809437 71.09467455621302, 36.371880649089064 71.89349112426036, 37.38324914546094 72.6923076923077, 36.77090915422898 73.49112426035504, 38.039456815107386 74.28994082840237, 36.537541525784334 75.0887573964497, 37.971842030007274 75.88757396449704, 34.42546307394962 76.68639053254438, 37.54021163961589 77.48520710059172, 38.11322167303459 78.28402366863905, 38.71251474537941 79.0828402366864, 39.71281010306741 79.88165680473374, 38.06396673871538 80.68047337278107, 39.61703319435276 81.4792899408284, 39.36358269765699 82.27810650887574, 41.39296178176195 83.07692307692308, 41.177323103606014 83.87573964497041, 42.474187551763606 84.67455621301775, 41.409265720151815 85.4733727810651, 42.42580417890156 86.27218934911244, 41.641254303297615 87.07100591715975, 42.25843483393031 87.8698224852071, 41.39858471843485 88.66863905325444, 40.102869487440955 89.46745562130178, 41.28965357946421 90.26627218934911, 41.307756433499485 91.06508875739645, 42.15578436530084 91.8639053254438, 44.468200723768035 92.66272189349112, 46.161521535023006 93.46153846153845, 45.58060189186327 94.2603550295858, 44.63796862157231 95.05917159763314, 46.56823729278287 95.85798816568047, 45.49721049823424 96.65680473372781, 43.77239173413604 97.45562130177515, 42.40798390157488 98.2544378698225, 41.21284091984326 99.05325443786982, 44.79661448314895 99.85207100591715, 46.00512700612638 100.6508875739645, 46.32076352362617 101.44970414201183, 45.34287089618233 102.24852071005917, 48.46823053289545 103.04733727810651, 47.86714165869255 103.84615384615385, 45.040261039452375 104.64497041420118, 41.12123265896597 105.44378698224853, 36.26831199963452 106.24260355029585, 34.02911735291467 107.0414201183432, 32.589067197451435 107.84023668639053, 32.954174283282505 108.63905325443787, 31.373247644913548 109.43786982248521, 27.054777974686406 110.23668639053254, 27.88595279977984 111.03550295857988, 23.395698437490715 111.83431952662723, 22.268877618456738 112.63313609467457, 25.167026105414834 113.43195266272188, 27.506757581358926 114.23076923076923, 25.494578147893836 115.02958579881657, 24.52256805550248 115.82840236686391, 17.846633755398553 116.62721893491124, 14.408843155326819 117.42603550295858, 10.549522501863844 118.22485207100593, 11.564202663417682 119.02366863905324, 9.398148232967408 119.82248520710058, 8.04085859930696 120.62130177514793, 5.807878583757771 121.42011834319527, 5.574789178441102 122.2189349112426, 9.219097376072703 123.01775147928994, 15.246317040400726 123.81656804733728, 12.230877099576217 124.61538461538463, 14.082908426661273 125.41420118343194, 10.398683945388406 126.21301775147928, 10.48110788446611 127.01183431952663, 7.842897903735671 127.81065088757396, 0.0 128.60946745562129, 5.25043708564715 129.40828402366864, 7.382205665138428 130.20710059171597, 9.473356941492463 131.0059171597633, 7.918719320274965 131.80473372781066, 13.74453329968868 132.60355029585799, 13.05509934263446 133.40236686390534, 6.253971731251988 134.20118343195267, 8.966623290910675" fill="none" stroke="#32ca5b" stroke-width="1.25"/>

</svg>